<?xml version="1.0" standalone="no"?>
<!DOCTYPE svg PUBLIC "-//W3C//DTD SVG 20010904//EN"
 "http://www.w3.org/TR/2001/REC-SVG-20010904/DTD/svg10.dtd">
<svg version="1.0" xmlns="http://www.w3.org/2000/svg"
 width="460.000000pt" height="460.000000pt" viewBox="0 0 460.000000 460.000000"
 preserveAspectRatio="xMidYMid meet">
<metadata>
Created by potrace 1.14, written by Peter Selinger 2001-2017
</metadata>
<g transform="translate(0.000000,460.000000) scale(0.100000,-0.100000)"
fill="#000000" stroke="none">
<path d="M0 2300 l0 -2300 2300 0 2300 0 0 2300 0 2300 -2300 0 -2300 0 0
-2300z m1125 180 c17 -55 69 -168 100 -215 37 -57 122 -140 178 -174 44 -27
47 -32 9 -22 -48 14 -126 58 -174 98 -149 123 -218 338 -158 491 l25 63 6
-108 c3 -59 9 -119 14 -133z m-58 -191 c26 -57 118 -157 183 -199 144 -93 384
-142 706 -144 l181 -1 -46 27 c-58 34 -98 71 -137 128 -35 51 -86 161 -56 122
65 -88 120 -147 167 -182 73 -54 196 -115 273 -134 66 -18 222 -33 222 -23 0
4 -17 15 -38 26 -77 39 -216 197 -266 301 -9 19 -11 27 -4 16 59 -87 158 -203
214 -249 93 -78 282 -167 353 -167 l25 0 -30 28 c-16 15 -50 45 -77 66 -43 35
-105 109 -133 161 -66 119 -88 165 -79 165 3 0 14 -18 24 -39 31 -59 163 -225
263 -328 114 -119 148 -186 148 -290 0 -40 4 -73 8 -73 12 0 57 50 76 85 l17
30 -5 -42 c-3 -23 -8 -47 -11 -55 -2 -7 2 -22 10 -32 14 -18 16 -18 68 18 84
58 156 61 217 10 42 -36 62 -87 64 -164 1 -55 -4 -76 -32 -132 -53 -109 -146
-171 -275 -184 l-67 -7 0 37 c0 52 -26 46 -76 -17 -115 -147 -324 -251 -604
-299 -186 -31 -509 -31 -670 1 -403 80 -645 206 -735 382 -48 94 -52 211 -11
332 37 110 49 207 40 327 -14 175 -9 410 10 539 24 153 27 159 47 76 9 -38 25
-91 36 -116z m545 -95 c64 -81 146 -150 226 -190 77 -39 76 -43 -3 -13 -136
51 -217 123 -275 244 -45 93 -64 156 -23 75 16 -31 49 -83 75 -116z"/>
<path d="M1182 1524 c-27 -19 -28 -55 -2 -79 17 -15 24 -16 50 -5 25 10 30 18
30 45 0 24 -6 34 -25 43 -32 15 -26 15 -53 -4z"/>
<path d="M2359 1469 c-26 -26 -21 -59 12 -78 24 -13 29 -13 53 2 31 21 34 56
8 80 -25 23 -48 21 -73 -4z"/>
<path d="M3123 1323 c-7 -2 -13 -13 -13 -24 0 -36 115 -74 139 -45 17 20 7 34
-43 57 -41 19 -61 22 -83 12z"/>
</g>
</svg>
